<svg xmlns="http://www.w3.org/2000/svg" version="1.1" width="600px" height="600px" xlink="http://www.w3.org/1999/xlink" style="overflow:hidden!important;"><g id="svga-group-wrapper" transform="scale(3 3)"><g id="svga-group-backs-single"><path id="SvgjsPath5514" d="M225 225H-25V-25h250V225z" fill="#ecf0f1" stroke-width="none" opacity="1"></path></g><g id="svga-group-subwrapper" ><g id="svga-group-hair-back" ><path id="SvgjsPath5641" d="M151.582 41.064l-99.508-5.662c0 0-25.074 182.88-25.074 188.596 0 0 100.899 0.72 143.907 0C170.103 216.079 151.582 41.064 151.582 41.064z" fill="#170d0a" stroke-width="none" opacity="1"></path></g><g id="svga-group-humanbody-single"><path id="SvgjsPath2761" d="M190.858 199.866c-6.008-10.158-13.474-11.973-19.628-13.936 -6.323-2.016-19.346-3.178-26.449-4.6 -6.86-1.373-23.153-5.789-23.339-13.488 -0.192-8.066 4.291-40.09 4.291-40.09H74.005c0 0 4.487 32.023 4.294 40.09 -0.184 7.699-16.48 12.115-23.341 13.488 -7.104 1.422-20.125 2.584-26.448 4.6 -6.156 1.963-13.624 3.777-19.632 13.936 -3.644 6.16-6.008 16.133-6.008 27.133h194C196.869 215.999 194.509 206.026 190.858 199.866z" fill="#f3d4cf" stroke-width="none" opacity="1" stroke="none"></path><path id="SvgjsPath2762" d="M121.442 167.843c2.495 10.929 18.165 13.698 26.293 15.325 21.909 4.379 33.772 5.134 42.297 19.539 2.903 4.916 5.459 15.864 5.962 24.153 1.835 0.291 0.531-17.432-5.136-26.994 -9.742-16.472-29.089-15.135-46.077-18.535C137.921 179.958 121.628 175.542 121.442 167.843L121.442 167.843zM78.558 167.843c-0.186 7.699-16.479 12.115-23.339 13.488 -16.988 3.4-36.335 2.063-46.077 18.535 -5.667 9.563-6.971 27.285-5.136 26.994 0.503-8.289 3.059-19.237 5.962-24.153 8.524-14.405 20.388-15.16 42.297-19.539C60.393 181.541 76.063 178.771 78.558 167.843L78.558 167.843z" fill="#fff4f3" stroke-width="none" opacity="1" stroke="none"></path><path id="SvgjsPath2763" d="M51.206 189.513c0 0 28.641 0.299 33.473 1.885 2.314 0.758 8.372 5.633 8.372 5.633s-6.556-3.17-8.658-3.758C79.51 191.909 51.206 189.513 51.206 189.513zM99.795 199.999c2.053-0.041 7.887-3.799 7.887-3.799s-5.574 2.059-7.342 2.16c-1.491 0.086-6.366-1.238-6.366-1.238S98.112 200.032 99.795 199.999zM117.008 192.757c6.75-1.818 29.786-3.23 29.786-3.23s-23.791-0.516-30.51 1.725c-2.252 0.752-7.562 5.16-7.562 5.16S114.786 193.354 117.008 192.757z" fill="#e4b3ab" stroke-width="none" opacity="1" stroke="none"></path><path id="SvgjsPath2764" d="M190.858 199.866c-9.741-16.471-29.122-15.142-46.077-18.535 -6.86-1.373-23.153-5.789-23.339-13.488 -0.192-8.066 4.291-40.09 4.291-40.09H74.005c0 0 4.487 32.023 4.294 40.09 -0.184 7.699-16.48 12.115-23.341 13.488 -7.104 1.422-20.125 2.584-26.448 4.6 -6.156 1.963-13.624 3.777-19.632 13.936 -3.644 6.16-6.008 16.133-6.008 27.133h194C196.869 215.999 194.509 206.026 190.858 199.866z" fill="none" stroke="#c5796d" stroke-width="1.5" opacity="1"></path></g><g id="svga-group-chinshadow-single"><path id="SvgjsPath5094" d="M100.045 171.737c5.593-0.009 13.488-3.608 20.908-8.44 0.448-6.688 1.717-17.243 2.734-25.146 -13.955-1.813-33.739-1.771-47.623 0.105 1.008 7.831 2.258 18.226 2.713 24.89C86.31 168.063 94.37 171.746 100.045 171.737z" fill="url(#SvgjsLinearGradient5095)" opacity="1"></path></g><g id="svga-group-clothes-single" ><path id="SvgjsPath5637" d="M3.229 223.031c-0.622-0.007-0.456-0.006-0.92-0.006 0.025-17.784 6.689-31.059 17.837-35.518 1.466 0.314 3.037 0.725 4.514 1.033C11.551 194.886 4.531 208.814 3.229 223.031zM181.643 188.404c-1.855 0.251-3.683 0.491-5.504 0.729 13.353 5.75 17.424 20.534 19.434 33.854 0.344-0.001 0.655-0.002 0.931-0.002C195.421 206.217 195.152 195.351 181.643 188.404z" fill="#dd166e" stroke-width="none" opacity="1"></path><path id="SvgjsPath5638" d="M181.509 192.193c0.734-0.111 2.033-0.324 2.761-0.438 -1.678-1.271-2.67-1.958-3.67-2.549 -5.851 1.009-59.284 7.112-88.51 7.112 -38.337 0-66.622-6.76-71.951-8.293 -1.09 0.62-2.15 1.301-3.15 2.061 1 0.257 2.201 0.598 3.218 0.841 -10.338 7.09-15.825 19.518-16.978 32.104 30.39 0.341 61.447 0.514 92.321 0.514 0.005 0 0.01 0 0.015 0 40.676 0 71.674-0.298 88.328-0.458 5.388-0.052 9.327-0.09 11.679-0.1C193.85 211.572 190.635 199.159 181.509 192.193z" fill="#ce005b" stroke-width="none" opacity="1"></path><path id="SvgjsPath5639" d="M23.439 189.002c-1.117 0.595-2.181 1.252-3.204 1.955 49.803 12.038 110.22 9.005 161.174 1.236 -1.131-0.854-2.354-1.625-3.673-2.303C129.006 198.106 71.062 201.817 23.439 189.002z" fill="#bf0054" stroke-width="none" opacity="1"></path><path id="SvgjsPath5640" d="M181.629 188.306c-89.42 12.081-124.385 7.031-161.52-0.891 -13.279 5.312-17.9 21.352-17.9 35.71 0.17 0 0.33 0 0.49 0 105.661 1.193 182.323-0.04 193.91-0.04C195.509 206.252 195.316 195.321 181.629 188.306zM20.239 188.125c49.132 14.134 109.964 10.021 160.36 1.28 1 0.591 1.992 1.079 3.67 2.35 -52.607 8.26-115.869 11.615-167.18-1.569C18.089 189.426 19.149 188.745 20.239 188.125zM2.769 222.605c1.961-14.393 4.62-24.719 13.97-32.15 50.694 14.553 116.182 11.469 168.26 1.86 8.309 6.651 7.884 13.707 11.01 30.32C140.967 222.022 68.396 221.847 2.769 222.605z" fill="#a00047" stroke-width="none" opacity="1"></path></g><g id="svga-group-head" ><g id="svga-group-ears-left" style="display:none;"><path id="SvgjsPath7510" d="M47.001 83.974c-1.376-2.313-5.638-7.997-9.98-6.603 -2.749 0.882-3.293 3.765-3.735 6.311 -0.588 3.386 0.471 10.083 1.389 12.503 0.881 2.325 3.533 6.816 5.264 8.527 2.13 2.1 4.775 8.793 5.194 9.487 0.66 1.097 1.536 2.745 4.122 2.538 2.853-0.229 4.584-1.742 5.856-1.999C58.253 114.109 50.582 89.995 47.001 83.974z" fill="#f3d4cf" stroke="#c5796d" stroke-width="1.5" opacity="1"></path><path id="SvgjsPath7511" d="M44.197 97.997c-0.132-0.548 0.007-1.47 0.142-2.362 0.124-0.812 0.24-1.579 0.169-2.121 -0.267-2.032-1.773-5.893-2.757-7.985 -1.132-2.407-2.963-5.439-5.262-6.221 -0.95-0.324-1.575 0.063-1.938 0.456 -0.266 0.289-0.325 0.627-0.238 0.667 0.086 0.04 0.285-0.24 0.572-0.504 0.235-0.216 0.579-0.402 1.051-0.363 -0.19 1.011-1.167 6.49-0.744 10.225 0.333 2.938 1.593 5.131 1.79 5.46 0.029 0.346 0.077 0.685 0.148 1.014 0.929 4.287 4.971 9.163 6.378 10.758 0.259 0.295 0.531 0.47 0.598 0.398 0.066-0.072-0.094-0.364-0.353-0.66 -1.388-1.585-5.391-6.442-6.289-10.579 -0.952-4.389 2.318-10.896 3.048-12.272 0.371 0.646 0.687 1.267 0.93 1.785 0.19 0.406 0.402 0.881 0.619 1.395 -0.429 0.718-3.434 5.958-2.338 10.153 0.406 1.546 2.235 3.54 3.447 4.086 0.667 0.301 0.919 0.75 1.209 1.271 0.336 0.604 0.718 1.288 1.828 1.784 0.225 0.102 0.429 0.142 0.61 0.142 0.313 0 0.551-0.126 0.725-0.276 0.018 0.266 0.017 0.604 0.009 0.917 -0.012 0.404 0.042 0.737 0.137 0.745 0.094 0.008 0.196-0.313 0.207-0.717 0.016-0.496 0.013-1.11-0.072-1.403 -0.248-0.865-1.008-1.841-1.813-2.875C45.221 99.896 44.403 98.844 44.197 97.997zM36.95 94.196c-2.177-6.731 0.656-12.54 1.144-13.464 0.85 0.775 1.6 1.811 2.21 2.824C39.86 84.365 37.041 89.669 36.95 94.196zM46.341 104.042c-1.004-0.447-1.339-1.051-1.666-1.633 -0.293-0.527-0.598-1.072-1.369-1.42 -0.168-0.075-0.352-0.191-0.542-0.323 -2.486-5.906 0.272-8.488 0.963-9.017 0.211 0.722 0.369 1.384 0.439 1.915 0.063 0.488-0.052 1.263-0.167 2.012 -0.142 0.929-0.286 1.89-0.137 2.512 0.226 0.926 1.069 2.009 1.884 3.057 0.723 0.929 1.466 1.888 1.721 2.67C47.359 103.972 47.017 104.345 46.341 104.042z" fill="#c5796d" stroke-width="none" opacity="1"></path></g><g id="svga-group-ears-right" style="display:none;"><path id="SvgjsPath7512" d="M152.736 83.974c1.377-2.313 5.639-7.997 9.98-6.603 2.75 0.882 3.293 3.765 3.736 6.311 0.588 3.386-0.471 10.083-1.389 12.503 -0.881 2.325-3.533 6.816-5.266 8.527 -2.129 2.1-4.775 8.793-5.193 9.487 -0.658 1.097-1.535 2.745-4.121 2.538 -2.854-0.229-4.584-1.742-5.857-1.999C141.484 114.109 149.156 89.995 152.736 83.974z" fill="#f3d4cf" stroke="#c5796d" stroke-width="1.5" opacity="1"></path><path id="SvgjsPath7513" d="M153.727 100.913c-0.805 1.033-1.564 2.009-1.813 2.875 -0.086 0.293-0.088 0.907-0.072 1.403 0.012 0.404 0.113 0.725 0.207 0.717s0.148-0.341 0.137-0.745c-0.008-0.313-0.008-0.651 0.01-0.917 0.174 0.15 0.412 0.276 0.725 0.276 0.182 0 0.385-0.04 0.609-0.142 1.109-0.496 1.492-1.18 1.828-1.784 0.289-0.52 0.543-0.969 1.209-1.271 1.213-0.546 3.041-2.54 3.447-4.086 1.096-4.194-1.908-9.435-2.338-10.153 0.217-0.513 0.43-0.988 0.619-1.395 0.244-0.518 0.559-1.139 0.93-1.785 0.73 1.377 4 7.883 3.049 12.272 -0.896 4.137-4.9 8.994-6.289 10.579 -0.258 0.296-0.418 0.588-0.352 0.66 0.066 0.071 0.338-0.104 0.598-0.398 1.406-1.596 5.449-6.471 6.379-10.758 0.07-0.329 0.117-0.668 0.146-1.014 0.197-0.329 1.459-2.523 1.791-5.46 0.422-3.735-0.555-9.214-0.744-10.225 0.473-0.039 0.814 0.146 1.051 0.363 0.287 0.264 0.486 0.544 0.572 0.504s0.027-0.378-0.238-0.667c-0.363-0.393-0.988-0.779-1.938-0.456 -2.299 0.782-4.131 3.814-5.262 6.221 -0.984 2.093-2.49 5.953-2.758 7.985 -0.072 0.542 0.045 1.309 0.17 2.121 0.135 0.892 0.273 1.814 0.141 2.362C155.336 98.844 154.518 99.896 153.727 100.913zM159.434 83.555c0.611-1.013 1.361-2.049 2.211-2.824 0.488 0.925 3.32 6.733 1.145 13.464C162.697 89.669 159.879 84.365 159.434 83.555zM152.27 103.816c0.254-0.782 0.998-1.741 1.721-2.67 0.816-1.048 1.658-2.131 1.885-3.057 0.148-0.622 0.004-1.583-0.137-2.512 -0.115-0.749-0.23-1.524-0.166-2.012 0.068-0.531 0.227-1.193 0.438-1.915 0.691 0.529 3.449 3.111 0.965 9.017 -0.191 0.132-0.375 0.248-0.543 0.323 -0.771 0.348-1.074 0.893-1.369 1.42 -0.326 0.582-0.662 1.186-1.666 1.633C152.721 104.345 152.379 103.972 152.27 103.816z" fill="#c5796d" stroke-width="none" opacity="1"></path></g><g id="svga-group-faceshape-wrap" ><g id="svga-group-faceshape-single" ><path id="SvgjsPath5091" d="M158.918 76.762l-0.005 0c-0.012 0.053-8.517 40.707-16.719 53.285 -6.452 9.894-30.366 29.938-42.04 29.956 -11.671 0.02-35.637-19.958-42.119-29.833C49.794 117.618 41.15 77 41.138 76.946h-0.001c-1.298-4.911-1.994-10.066-2.002-15.382C39.082 28.09 66.289 0.919 99.907 0.867c33.621-0.052 60.913 27.033 60.963 60.507C160.879 66.69 160.201 71.846 158.918 76.762z" fill="#f3d4cf" stroke-width="none" opacity="1"></path><path id="SvgjsPath5092" d="M125.898 6.622c19.104 10.248 32.075 30.355 32.039 53.476 -0.009 5.316-0.704 10.471-2.003 15.382h-0.001c-0.012 0.053-8.656 40.672-16.898 53.224 -5.946 9.061-26.755 29.522-39.033 29.522 -12.279 0-33.086-20.462-39.033-29.522 -8.242-12.552-16.887-53.17-16.898-53.224H44.07c-1.298-4.911-1.994-10.066-2.002-15.382C42.031 36.977 55.003 16.87 74.105 6.622 53.411 16.324 39.096 37.28 39.134 61.564c0.008 5.316 0.704 10.471 2.002 15.382h0.001C41.15 77 49.794 117.618 58.036 130.17c4.416 6.728 18.123 20.495 28.7 25.782 -0.529-0.226-1.062-0.466-1.599-0.717 5.408 2.875 10.664 4.763 14.713 4.768 0.049 0 0.103-0.005 0.152-0.005s0.103 0.005 0.152 0.005c4.048-0.005 9.304-1.893 14.713-4.768 -0.538 0.252-1.071 0.491-1.601 0.717 10.577-5.286 24.285-19.055 28.701-25.782 8.241-12.552 16.887-53.17 16.897-53.224h0.002c1.298-4.911 1.994-10.066 2.002-15.382C160.908 37.28 146.595 16.324 125.898 6.622z" fill="#ebc3bd" stroke-width="none" opacity="1"></path><path id="SvgjsPath5093" d="M158.918 76.762l-0.005 0c-0.012 0.053-8.517 40.707-16.719 53.285 -6.452 9.894-30.366 29.938-42.04 29.956 -11.671 0.02-35.637-19.958-42.119-29.833C49.794 117.618 41.15 77 41.138 76.946h-0.001c-1.298-4.911-1.994-10.066-2.002-15.382C39.082 28.09 66.289 0.919 99.907 0.867c33.621-0.052 60.913 27.033 60.963 60.507C160.879 66.69 160.201 71.846 158.918 76.762z" fill="none" stroke="#c5796d" stroke-width="1.5" opacity="1"></path></g></g><g id="svga-group-mouth-single" ><path id="SvgjsPath7655" d="M100.091 139.322c-4.952 0-6.142-3.033-6.142-3.033 6.246 2.316 11.836-0.124 11.836-0.124S104.446 139.322 100.091 139.322z" fill="url(#SvgjsLinearGradient7656)" opacity="1"></path><path id="SvgjsPath7659" d="M85.595 129.671c2.677-0.132 7.545-1.077 10.096-0.988 1.319 0.046 2.63 0.953 4.007 1.242 0.958 0.202 3.935-1.1 4.915-1.162 2.572-0.162 7.409 0.744 9.771 0.92 0.13 0.011 0 0 0 0s-5.776 7.727-14.463 7.725C90.09 137.406 85.595 129.671 85.595 129.671S85.463 129.678 85.595 129.671z" fill="#f771a9" stroke="#e85391" stroke-width="0.75" opacity="1"></path><path id="SvgjsPath7660" d="M114.739 129.405c-0.045-0.131-0.461-0.189-0.624-0.139 -0.3 0.094-0.663 0.521-1.313 0.686 -0.748 0.191-5.021 1.431-6.193 1.49 -2.365 0.118-4.438 0.943-6.76 0.938 -2.323-0.005-4.34-0.929-6.716-1.058 -1.18-0.065-5.194-1.216-5.947-1.4 -0.65-0.16-0.89-0.574-1.162-0.686 -0.189-0.077-0.652-0.02-0.743 0.105 -0.079 0.107 0.088 0.609 0.2 0.75 0.271 0.336 1.103 0.506 1.667 0.647 0.779 0.199 4.759 1.366 5.949 1.433 2.305 0.13 4.308 1.125 6.612 1.127 2.306 0.003 4.405-0.904 6.729-1.022 1.195-0.062 5.53-1.313 6.332-1.513 0.58-0.146 1.388-0.399 1.672-0.68C114.58 129.95 114.785 129.538 114.739 129.405z" fill="#c92066" stroke-width="none" opacity="1"></path><path id="SvgjsPath7661" d="M99.799 136.138c-3.914 0-7.707-1.246-10.289-3.693 1.36 0.19 2.83 0.207 4.269 0.403 1.773 0.242 3.429 0.921 5.248 1.034 1.968 0.125 3.916-0.495 5.886-0.841 1.644-0.289 4.21-1.067 5.742-1.302C107.729 133.982 103.577 136.138 99.799 136.138zM105.256 131.043c1.49-0.149 3.855-0.879 5.226-1.04 -1.406-0.413-3.829-0.279-5.576-0.441 -1.506-0.139-3.244 0.861-4.817 1.016 -1.774 0.175-2.94-1.233-4.607-1.369 -1.809-0.147-3.787 0.559-5.336 0.915 1.387 0.188 2.877 0.239 4.309 0.517 1.753 0.341 3.405 0.992 5.223 1.054C101.537 131.757 103.419 131.226 105.256 131.043z" fill="#ff8ebd" stroke-width="none" opacity="1"></path><path id="SvgjsPath7662" d="M105.695 133.406c-0.308 0.01-0.625 0.025-0.93 0.051 -0.351 0.028-0.668 0.069-0.961 0.123 -0.538 0.099-1.074 0.233-1.638 0.369 -0.888 0.216-1.726 0.392-2.662 0.391 -0.15 0-0.301-0.007-0.452-0.017 -0.764-0.055-1.521-0.217-2.191-0.412 -0.693-0.204-1.353-0.401-2.019-0.492 -0.128-0.017-0.259-0.029-0.387-0.042 -0.409-0.036-0.836-0.052-1.255-0.063 1.734 1.396 4.128 2.038 6.468 2.041C102.079 135.356 103.946 134.512 105.695 133.406z" fill="#ffa8cc" stroke-width="none" opacity="1"></path></g><g id="svga-group-eyes-left" ><g id="svga-group-eyesback-left"><path id="SvgjsPath7452" d="M76.925 80.872c4.607 0.618 8.048 3.822 11.044 9 0.004 0.006 0.013 0.004 0.018 0.009 0.008 0.032 0.022 0.063 0.029 0.094 0.29 1.188-0.752 2.198-2.068 2.988 -4.747 0.924-9.302 2.162-14.155 1.625 -9.719-1.074-10.042-6.145-10.551-7.458 -0.291-1.299-0.374-2.626-0.397-3.883 1.844 0.032 3.983-1.056 5.781-1.555C68.731 81.108 73.444 80.404 76.925 80.872z" fill="url(#SvgjsRadialGradient7453)" opacity="1"></path></g><g id="svga-group-eyesiriswrapper-left" transform="translate(0 1)"><g id="svga-group-eyesiriscontrol-left" ><g id="svga-group-eyesiris-left" ><path id="SvgjsPath5650" d="M83.199 89.25c-1.231 4.522-5.896 7.187-10.429 5.944 -4.528-1.241-7.203-5.918-5.97-10.442 1.23-4.526 5.905-7.19 10.434-5.947C81.761 80.045 84.433 84.723 83.199 89.25z" fill="#362518" stroke="#080401" stroke-width="0.5" opacity="1"></path><path id="SvgjsPath5651" d="M82.994 87.526c-0.625 5.021-4.353 7.638-8.432 7.365 -3.765-0.253-7.131-3.031-7.443-7.828 1.302-0.374 3.031 0.234 4.549 0.002 -0.005 0.055-0.023 0.104-0.025 0.16 -0.12 1.842 1.357 3.446 3.299 3.577 1.946 0.13 3.62-1.263 3.74-3.104 0.013-0.24-0.002-0.476-0.038-0.702C79.997 87.2 81.648 86.999 82.994 87.526z" fill="#453326" stroke-width="none" opacity="1"></path><path id="SvgjsPath5652" d="M76.229 84.164c-1.869-0.535-3.777 0.533-4.26 2.396 -0.483 1.853 0.642 3.793 2.51 4.329 1.873 0.537 3.781-0.532 4.266-2.386C79.23 86.639 78.101 84.7 76.229 84.164z" fill="#000000" stroke-width="none" opacity="0.9"></path><path id="SvgjsPath5653" d="M76.229 84.164c-1.869-0.535-3.777 0.533-4.26 2.396 -0.483 1.853 0.642 3.793 2.51 4.329 1.873 0.537 3.781-0.532 4.266-2.386C79.23 86.639 78.101 84.7 76.229 84.164z" fill="none" stroke="#080401" stroke-width="0.75" opacity="1"></path><path id="SvgjsPath5654" d="M70.977 92.181c-0.177 0.619-1.142 0.356-0.965-0.266 0.171-0.6 0.633-0.967 0.926-1.495 0.313-0.564 1.177-0.06 0.863 0.505C71.56 91.36 71.114 91.696 70.977 92.181L70.977 92.181zM72.516 91.194c-0.266 0.31-0.614 1.458-0.766 1.834 -0.241 0.598 0.727 0.856 0.965 0.266 0.082-0.205 0.362-1.223 0.508-1.393C73.64 91.415 72.936 90.704 72.516 91.194L72.516 91.194zM74.598 94.151c0.522-0.602 0.47-1.292 0.459-2.041 -0.01-0.644-1.01-0.645-1 0 0.006 0.415 0.13 0.992-0.166 1.334C73.47 93.929 74.175 94.639 74.598 94.151L74.598 94.151zM75.619 91.985c0.008 0.621 0.084 1.226 0.268 1.82 0.19 0.614 1.155 0.352 0.965-0.266 -0.159-0.513-0.226-1.019-0.232-1.555C76.611 91.341 75.611 91.34 75.619 91.985L75.619 91.985z" fill="#ffffff" stroke-width="none" opacity="0.5"></path><path id="SvgjsPath5655" d="M80.946 85.543c-0.985 0.59-2.466 0.059-3.305-1.188 -0.838-1.248-0.713-2.739 0.273-3.328 0.984-0.593 2.467-0.061 3.301 1.187C82.053 83.462 81.932 84.952 80.946 85.543z" fill="#ffffff" stroke-width="none" opacity="0.8"></path></g></g></g><g id="svga-group-eyesfront-left"><path id="SvgjsPath7477" d="M55.5 88c0 13.808 8.283 24.999 18.5 24.999S92.5 101.808 92.5 88c0-13.809-8.283-25.001-18.5-25.001S55.5 74.191 55.5 88zM61.241 87.132c-0.291-1.299-0.374-2.626-0.397-3.883 1.844 0.032 3.983-1.056 5.781-1.555 2.106-0.586 6.819-1.29 10.3-0.822 4.607 0.618 8.048 3.822 11.044 9 0.004 0.006 0.013 0.004 0.018 0.009 0.008 0.032 0.022 0.063 0.029 0.094 0.29 1.188-0.752 2.198-2.068 2.988 -4.747 0.924-9.302 2.162-14.155 1.625C62.073 93.516 61.75 88.445 61.241 87.132z" fill="#f3d4cf" stroke-width="none" opacity="1"></path><path id="SvgjsPath7478" d="M75.005 100.952c9.299 1.281 17.73-4.324 18.83-12.528 1.101-8.205-5.541-15.895-14.842-17.18 -9.301-1.28-17.729 4.326-18.829 12.53C59.064 91.977 65.704 99.664 75.005 100.952zM60.844 83.249c1.844 0.032 3.983-1.056 5.781-1.555 2.106-0.586 6.819-1.29 10.3-0.822 4.607 0.618 8.048 3.822 11.044 9 0.004 0.006 0.013 0.004 0.018 0.009 0.008 0.032 0.022 0.063 0.029 0.094 0.29 1.188-0.752 2.198-2.068 2.988 -4.747 0.924-9.302 2.162-14.155 1.625 -9.719-1.074-10.042-6.145-10.551-7.458C60.95 85.833 60.867 84.506 60.844 83.249z" fill="url(#SvgjsRadialGradient7479)" opacity="1"></path><path id="SvgjsPath7483" d="M61.241 87.132c-0.291-1.299-0.374-2.626-0.397-3.883 1.844 0.032 3.983-1.056 5.781-1.555 2.106-0.586 6.819-1.29 10.3-0.822 4.607 0.618 8.048 3.822 11.044 9 0.004 0.006 0.013 0.004 0.018 0.009 0.008 0.032 0.022 0.063 0.029 0.094 0.29 1.188-0.752 2.198-2.068 2.988 -4.747 0.924-9.302 2.162-14.155 1.625C62.073 93.516 61.75 88.445 61.241 87.132z" fill="url(#SvgjsRadialGradient7484)" opacity="1"></path><path id="SvgjsPath7487" d="M76.428 75.952c3.311 0.503 6.572 2.172 9.612 4.298 0.65 0.455 1.396 0.972 2.57 1.622 -0.834-0.189-1.614-0.667-2.343-1.106 0.76 0.798 1.475 1.76 2.063 2.694 -2.63-3.653-7.485-6.286-11.574-7.082 -3.927-0.765-10.991 0.142-16.17 3.104C65.306 76.058 72.317 75.327 76.428 75.952z" fill="#c5796d" stroke-width="none" opacity="1"></path><path id="SvgjsPath7488" d="M88.054 89.86c-0.034 0.003-0.066-0.014-0.084-0.043 -2.996-5.044-6.437-8.167-11.045-8.769 -3.479-0.456-8.192 0.23-10.3 0.801 -1.867 0.505-4.106 1.641-5.996 1.518 -1.754-0.115-3.748-1.511-4.801-2.513 1.128 0.843 4.185 1.027 5.099 0.811 -0.282-0.073-1.853-1.056-2.157-1.348 0.741 0.422 3.617 0.862 4.542 0.628 -0.265-0.14-1.585-1.042-1.891-1.398 0.14 0.122 3.378 0.74 5.034 0.188 9.938-3.31 18.034-0.452 21.862 9.95 0.014 0.035 0.009 0.074-0.011 0.105 -0.021 0.031-0.054 0.051-0.091 0.055L88.054 89.86zM61.004 86.846c-0.644 2.483 1.093 7.881 10.4 8.505 6.612 0.442 15.696-2.737 14.568-2.526 -4.756 0.9-9.318 2.112-14.181 1.589C60.769 93.227 61.832 87.027 61.004 86.846z" fill="#000000" stroke-width="none" opacity="1"></path></g></g><g id="svga-group-eyes-right" ><g id="svga-group-eyesback-right"><path id="SvgjsPath7460" d="M123.075 80.872c-4.607 0.618-8.048 3.822-11.044 9 -0.004 0.006-0.013 0.004-0.018 0.009 -0.008 0.032-0.022 0.063-0.029 0.094 -0.29 1.188 0.752 2.198 2.068 2.988 4.747 0.924 9.302 2.162 14.155 1.625 9.719-1.074 10.042-6.145 10.551-7.458 0.291-1.299 0.374-2.626 0.397-3.883 -1.844 0.032-3.983-1.056-5.781-1.555C131.269 81.108 126.556 80.404 123.075 80.872z" fill="url(#SvgjsRadialGradient7461)" opacity="1"></path></g><g id="svga-group-eyesiriswrapper-right" transform="translate(0 1)"><g id="svga-group-eyesiriscontrol-right" ><g id="svga-group-eyesiris-right" ><path id="SvgjsPath5656" d="M133.199 89.25c-1.231 4.522-5.896 7.187-10.429 5.944 -4.528-1.241-7.203-5.918-5.97-10.442 1.23-4.526 5.905-7.19 10.434-5.947C131.761 80.045 134.433 84.723 133.199 89.25z" fill="#362518" stroke="#080401" stroke-width="0.5" opacity="1"></path><path id="SvgjsPath5657" d="M132.994 87.526c-0.625 5.021-4.353 7.638-8.432 7.365 -3.765-0.253-7.131-3.031-7.443-7.828 1.302-0.374 3.031 0.234 4.549 0.002 -0.005 0.055-0.023 0.104-0.025 0.16 -0.12 1.842 1.357 3.446 3.299 3.577 1.946 0.13 3.62-1.263 3.74-3.104 0.013-0.24-0.002-0.476-0.038-0.702C129.997 87.2 131.648 86.999 132.994 87.526z" fill="#453326" stroke-width="none" opacity="1"></path><path id="SvgjsPath5658" d="M126.229 84.164c-1.869-0.535-3.777 0.533-4.26 2.396 -0.483 1.853 0.642 3.793 2.51 4.329 1.873 0.537 3.781-0.532 4.266-2.386C129.23 86.639 128.101 84.7 126.229 84.164z" fill="#000000" stroke-width="none" opacity="0.9"></path><path id="SvgjsPath5659" d="M126.229 84.164c-1.869-0.535-3.777 0.533-4.26 2.396 -0.483 1.853 0.642 3.793 2.51 4.329 1.873 0.537 3.781-0.532 4.266-2.386C129.23 86.639 128.101 84.7 126.229 84.164z" fill="none" stroke="#080401" stroke-width="0.75" opacity="1"></path><path id="SvgjsPath5660" d="M120.977 92.181c-0.177 0.619-1.142 0.356-0.965-0.266 0.171-0.6 0.633-0.967 0.926-1.495 0.313-0.564 1.177-0.06 0.863 0.505C121.56 91.36 121.114 91.696 120.977 92.181L120.977 92.181zM122.516 91.194c-0.266 0.31-0.614 1.458-0.766 1.834 -0.241 0.598 0.727 0.856 0.965 0.266 0.082-0.205 0.362-1.223 0.508-1.393C123.64 91.415 122.936 90.704 122.516 91.194L122.516 91.194zM124.598 94.151c0.522-0.602 0.47-1.292 0.459-2.041 -0.01-0.644-1.01-0.645-1 0 0.006 0.415 0.13 0.992-0.166 1.334C123.47 93.929 124.175 94.639 124.598 94.151L124.598 94.151zM125.619 91.985c0.008 0.621 0.084 1.226 0.268 1.82 0.19 0.614 1.155 0.352 0.965-0.266 -0.159-0.513-0.226-1.019-0.232-1.555C126.611 91.341 125.611 91.34 125.619 91.985L125.619 91.985z" fill="#ffffff" stroke-width="none" opacity="0.5"></path><path id="SvgjsPath5661" d="M130.946 85.543c-0.985 0.59-2.466 0.059-3.305-1.188 -0.839-1.248-0.714-2.739 0.272-3.328 0.984-0.593 2.467-0.061 3.301 1.187C132.054 83.462 131.932 84.952 130.946 85.543z" fill="#ffffff" stroke-width="none" opacity="0.8"></path></g></g></g><g id="svga-group-eyesfront-right"><path id="SvgjsPath7498" d="M126 62.999c-10.217 0-18.5 11.193-18.5 25.001 0 13.808 8.283 24.999 18.5 24.999S144.5 101.808 144.5 88C144.5 74.191 136.217 62.999 126 62.999zM128.208 94.589c-4.854 0.537-9.408-0.702-14.155-1.625 -1.316-0.791-2.358-1.8-2.068-2.988 0.007-0.032 0.021-0.063 0.029-0.094 0.005-0.005 0.014-0.003 0.018-0.009 2.996-5.178 6.437-8.382 11.044-9 3.48-0.468 8.193 0.236 10.3 0.822 1.798 0.499 3.938 1.587 5.781 1.555 -0.023 1.257-0.106 2.583-0.397 3.883C138.25 88.445 137.927 93.516 128.208 94.589z" fill="#f3d4cf" stroke-width="none" opacity="1"></path><path id="SvgjsPath7499" d="M139.836 83.774c-1.101-8.205-9.528-13.811-18.829-12.53 -9.301 1.285-15.942 8.976-14.842 17.18 1.1 8.204 9.531 13.809 18.83 12.528C134.296 99.664 140.936 91.977 139.836 83.774zM138.759 87.132c-0.509 1.313-0.832 6.384-10.551 7.458 -4.854 0.537-9.408-0.702-14.155-1.625 -1.316-0.791-2.358-1.8-2.068-2.988 0.007-0.032 0.021-0.063 0.029-0.094 0.005-0.005 0.014-0.003 0.018-0.009 2.996-5.178 6.437-8.382 11.044-9 3.48-0.468 8.193 0.236 10.3 0.822 1.798 0.499 3.938 1.587 5.781 1.555C139.133 84.506 139.05 85.833 138.759 87.132z" fill="url(#SvgjsRadialGradient7500)" opacity="1"></path><path id="SvgjsPath7504" d="M138.759 87.132c0.291-1.299 0.374-2.626 0.397-3.883 -1.844 0.032-3.983-1.056-5.781-1.555 -2.106-0.586-6.819-1.29-10.3-0.822 -4.607 0.618-8.048 3.822-11.044 9 -0.004 0.006-0.013 0.004-0.018 0.009 -0.008 0.032-0.022 0.063-0.029 0.094 -0.29 1.188 0.752 2.198 2.068 2.988 4.747 0.924 9.302 2.162 14.155 1.625C137.927 93.516 138.25 88.445 138.759 87.132z" fill="url(#SvgjsRadialGradient7505)" opacity="1"></path><path id="SvgjsPath7508" d="M123.572 75.952c-3.311 0.503-6.572 2.172-9.612 4.298 -0.65 0.455-1.396 0.972-2.57 1.622 0.834-0.189 1.614-0.667 2.343-1.106 -0.76 0.798-1.475 1.76-2.063 2.694 2.63-3.653 7.485-6.286 11.574-7.082 3.927-0.765 10.991 0.142 16.17 3.104C134.694 76.058 127.683 75.327 123.572 75.952z" fill="#c5796d" stroke-width="none" opacity="1"></path><path id="SvgjsPath7509" d="M111.784 89.846c-0.037-0.003-0.07-0.024-0.091-0.055 -0.02-0.031-0.024-0.07-0.011-0.105 3.828-10.402 11.925-13.26 21.862-9.95 1.656 0.552 4.895-0.067 5.034-0.188 -0.306 0.355-1.626 1.258-1.891 1.398 0.925 0.234 3.801-0.206 4.542-0.628 -0.305 0.292-1.875 1.275-2.157 1.348 0.914 0.216 3.971 0.032 5.099-0.811 -1.053 1.002-3.047 2.398-4.801 2.513 -1.89 0.124-4.129-1.012-5.996-1.518 -2.107-0.571-6.82-1.256-10.3-0.801 -4.608 0.602-8.049 3.725-11.045 8.769 -0.018 0.029-0.05 0.046-0.084 0.043L111.784 89.846zM128.208 94.413c-4.862 0.523-9.425-0.688-14.181-1.589 -1.128-0.211 7.956 2.969 14.568 2.526 9.308-0.624 11.044-6.021 10.4-8.505C138.168 87.027 139.231 93.227 128.208 94.413z" fill="#000000" stroke-width="none" opacity="1"></path></g></g><g id="svga-group-facehighlight-single" ><path id="SvgjsPath2753" d="M140.204 113.007c0.035 22.275-17.995 40.365-40.273 40.396 -22.274 0.036-40.361-17.993-40.396-40.272C59.501 90.857 77.53 72.77 99.808 72.735 122.083 72.701 140.171 90.73 140.204 113.007z" fill="url(#SvgjsRadialGradient2754)" opacity="1"></path><path id="SvgjsPath2757" d="M135,55.999c0,19.329-15.671,35-35,35c-19.329,0-35-15.671-35-35s15.671-35,35-35C119.329,20.999,135,36.67,135,55.999z" fill="url(#SvgjsRadialGradient2758)" opacity="1"></path></g><g id="svga-group-eyebrows-left" ><path id="SvgjsPath5336" d="M52.39 76.804c16.406-19.451 43.626-14.324 38.065-11.7C88.527 66.014 68.692 62.075 52.39 76.804z" fill="#2a232b" stroke-width="none" opacity="1"></path></g><g id="svga-group-eyebrows-right" ><path id="SvgjsPath5337" d="M147.619 76.796c-10.422-9.39-21.831-11.612-35.751-11.554 -4.2 0.015-3.035-1.712-1.846-2.059C113.752 62.098 133.915 60.618 147.619 76.796z" fill="#2a232b" stroke-width="none" opacity="1"></path></g><g id="svga-group-nose-single" ><path id="SvgjsPath5249" d="M92.281 116.235c-0.745 2.063 5.028 4.289 7.218 4.426 2.374 0.147 9.024-2.899 7.896-4.991 -1.185-2.197-5.63-0.286-7.547-0.286C97.94 115.384 93.276 113.479 92.281 116.235z" fill="#e4b3ab" stroke-width="none" opacity="1"></path><path id="SvgjsPath5250" d="M102.207 117.221c-0.243-0.522 1.194-1.333 1.748-1.493 0.777-0.226 2.505 0.238 2.438 0.831 -0.06 0.521-1.603-0.169-2.105-0.022C103.767 116.687 102.435 117.712 102.207 117.221zM95.214 116.742c0.706 0 1.753 0.457 1.945 0.057 0.229-0.479-1.56-1.065-2.086-1 -0.434 0.052-1.991 0.958-1.777 1.338C93.496 117.49 94.284 116.742 95.214 116.742z" fill="#c5796d" stroke-width="none" opacity="1"></path><path id="SvgjsPath5251" d="M99.857 113.479c0.669 0 1.807-0.637 1.978-1.9 0.754-5.575-0.521-20.246-1.978-20.246 -1.365 0-2.508 15.024-2.155 20.246C97.789 112.86 99.099 113.479 99.857 113.479" fill="#ffffff" stroke-width="none" opacity="0.2"></path></g><g id="svga-group-hair-front" ><path id="SvgjsPath5643" d="M38.854 237.82l9.88-202.719 105.496 1.162 1.025 203.314C155.255 239.577 50.052 239.114 38.854 237.82zM137.106 235.279c-4.241-47.633 1.152-84.777 5.499-114.713 2.44-16.806 4.572-31.486 4.458-44.428 -2.542 1.415-21.941 1.903-21.941 1.903 -14.513 2.338-25.333 0.387-25.782 0.438 -1.982-12.335-2.297-14.256-2.726-17.048 -1.333 11.235-0.355 13.67-1.37 15.249 -2.873 0.713-22.804-0.167-23.806-0.237 -5.478 2.035-9.035-2.194-12.427-1.241 -1.982 1.505-5.386 1.669-6.386 1.42 -1.023 20.123 2.42 35.283 6.058 51.303 9 39.633 8.399 50.872 5.508 104.881C64.192 232.806 126.452 234.934 137.106 235.279z" fill="#362623" stroke-width="none" opacity="0.1"></path><path id="SvgjsPath5644" d="M177.393 209.541c-15.107-60.344 3.552-108.071-9.179-151.026 -6.063-20.427-18.396-46.964-42.724-57.386 -6.483-2.787-12.601-3.207-19.46-2.256 -3.871-1.177-8.064-1.773-12.462-1.773 -30.232 0-49.746 25.833-59.244 54.789 -5.943 18.135-7.341 33.902-5.755 64.884 3.633 70.935-3.103 88.369-14.274 117.075 17.224 0.024 36.536 4.694 63.515 4.779 22.28 0.08 102.989 0.006 109.574-0.733C180.977 223.385 179.949 219.769 177.393 209.541zM139.306 237.354c-44.235-1.525-58.379 0.504-77.335-0.458 3.085-57.769 3.929-68.17-5.236-108.528 -3.815-16.8-7.374-32.516-5.986-53.916 1.84-0.071 3.204 0.365 4.861 1.224v0.005c0.079 0.043 0.154 0.086 0.23 0.131 0.05-0.268 0.105-0.577 0.162-0.836l0.118-0.089 -0.098-0.02c0.638-3.158 1.735-6.719 3.175-10.297l0.191 0.054c-0.49 2.876-0.772 5.765-0.838 8.586l-0.03 0.053c3.296-0.917 7.163 1.845 10.161 1.845 0.87-0.06 1.588-0.369 2.394-0.662 1.102-15.937 2.326-22.387 4.625-27.361l0.188 0.063c-1.329 6.207-1.753 14.946-1.297 26.715l-0.012 0.016c2.685-0.26 5.862 0.912 8.171 0.815 0-3.915 0.676-9.192 0.94-12.385l0.199 0.002c0.403 6.263 1.163 10.374 1.782 13.256 5.281-1.185 5.041-0.413 7.762-0.57 0.189-0.009 0.377-0.028 0.556-0.064l0.03-0.046 -0.1 0.008c-0.677-8.054 2.333-25.156 3.102-29.187l0.198 0.019c-0.008 7.96 0.718 11.325 3.793 30.548 1.722-0.197 4.705 0.844 6.717 1.081 0-3.986-0.013-3.709 0.01-5.85l0.199 0c0.033 2.019 0.142 3.989 0.735 5.933 3.159 0.066 5.395-1.403 8.343-1.122 0.369-16.421-1.055-25.078-1.897-32.829l0.196-0.037c4.08 15.22 5.452 31.663 5.565 33.095 0.38-0.028 1.758-0.133 2.461-0.246 0.431-3.141 2.143-21.364 1.309-26.247l0.194-0.046c2.643 8.591 2.331 15.253 2.524 25.565 2.552-0.785 6.706 0.343 9.615 0.015 -0.4-7.699-0.557-14.668-2.451-21.243l0.189-0.063c2.292 5.971 4.105 13.197 4.986 20.951l0.045-0.025c6.444 0.5 5.332-0.919 9.239-2.14C150.379 109.934 131.943 159.713 139.306 237.354z" fill="#362623" stroke-width="none" opacity="1"></path><path id="SvgjsPath5645" d="M180.326 238.184c-13.273 0.212-38.624-0.278-41.021-0.829 -2.923-30.82-1.775-57.236 0.579-80.211 3.563-34.778 9.895-61.65 9.112-83.836 0.153-1.482 2.837-0.396 3.497-1.095 -4.5-29.25-14.214-47.686-29.494-59.91 64.384 45.135 14.583 132.535 23.191 167.176 1.473-18.377 13.012-69.387 15.809-79.376 -5 36-17 78 3 112 -2.631-14.907-2.954-30.583-2.994-45.681C162.776 191.536 172.246 214.616 180.326 238.184zM58.674 65.947c0.174-0.459 0.336-0.917 0.522-1.377l0.191 0.054c-0.49 2.876-0.772 5.765-0.838 8.586l-0.03 0.053c0.829-0.23 1.694-0.228 2.572-0.096 0.46-12.512 2.842-25.349 9.909-35.065C62.39 45.146 60.52 55.867 58.674 65.947zM101 31.102c-4.32 7.921-5.012 16.878-5.807 25.753 0.705-4.999 1.486-9.358 1.828-11.146l0.198 0.019c-0.008 7.96 0.718 11.325 3.793 30.548 0.581-0.066 1.31 0.014 2.092 0.15C99.585 61.645 97.306 46.8 101 31.102zM107.107 77.255c0.21 0.036 0.428 0.078 0.622 0.101 0-3.986-0.013-3.709 0.01-5.85l0.199 0c0.033 2.019 0.142 3.989 0.735 5.933 0.322 0.007 0.628-0.012 0.933-0.033C109.008 70.885 109 64.846 109 58.102 107.081 64.817 107.919 70.614 107.107 77.255zM116.672 76.305c0.116 0.006 0.227 0 0.345 0.012 0.369-16.421-1.055-25.078-1.897-32.829l0.196-0.037c4.08 15.22 5.452 31.663 5.565 33.095 0.274-0.02 1.071-0.081 1.757-0.156 -1.144-16.075-3.59-31.982-11.638-46.289C114.768 45.173 114.988 61.131 116.672 76.305zM135.979 75.646c0.347-0.006 0.685-0.021 1.005-0.058 -0.4-7.699-0.557-14.668-2.451-21.243l0.189-0.063c2.292 5.971 4.105 13.197 4.986 20.951l0.045-0.025c0.782 0.061 1.449 0.092 2.031 0.1 -1.098-13.198-6.537-25.602-12.785-37.206C132.851 50.616 135.767 63.131 135.979 75.646zM124.84 56.501c0.076-2.761 0.039-5.108-0.189-6.448l0.194-0.046c2.643 8.591 2.331 15.253 2.524 25.565 0.555-0.17 1.193-0.239 1.87-0.264 0.08-12.715-1.994-25.322-6.239-37.208C123.654 43.994 124.731 50.313 124.84 56.501zM86 50.102c-3.781 7.562-3.098 16.018-4.701 24.521 0.509 0.058 0.997 0.089 1.45 0.07 0-3.915 0.676-9.192 0.94-12.385l0.199 0.002c0.403 6.263 1.163 10.374 1.782 13.256 0.642-0.144 1.2-0.258 1.694-0.35C85.62 67.168 84.213 59.034 86 50.102zM79 40.102c-8.426 9.362-8.087 23.107-8.83 34.67 0.297-0.103 0.594-0.213 0.904-0.326 1.102-15.937 2.326-22.387 4.625-27.361l0.188 0.063c-1.329 6.207-1.753 14.946-1.297 26.715l-0.012 0.016c0.748-0.072 1.534-0.029 2.329 0.063C76.446 62.338 74.534 50.821 79 40.102zM81 17.102c-25.15 16.485-39 47-35 75 5 37 11 73 6 110 3-31-2-62-8-93 5 34 5 68-4 101 3.177-16.681 0.047-32.73-1.376-49.151 0.141 25.13-5.941 50.009-14.846 73.181 16.549 0.846 36.42 3.267 38.192 2.766 3.085-57.769 3.929-68.17-5.236-108.528 -3.815-16.8-7.374-32.516-5.986-53.916C50.748 74.453 52.907 45.195 81 17.102z" fill="#271815" stroke-width="none" opacity="1"></path><path id="SvgjsPath5646" d="M64.672 42.118C74.59 24.24 80.38 19.473 94.632 11.415c0.176-0.104-0.702 0.439-2.147 1.33C78.576 21.306 72.058 29.883 64.672 42.118zM135.742 37.113c9.163 18.181 9.775 30.657 9.025 24.705 -0.8-4.99-1.419-10.855-6.312-22.197 -5.369-11.776-14.072-23.532-25.283-30.441C119.437 13.431 126.959 20.108 135.742 37.113zM91.527 43.736c-1.861 13.125-1.499 23.37-1.487 22.57 0.06-9.996 2.285-23.7 4.771-33.506 2.673-9.599 5.599-14.82 6.494-16.746C97.408 23.369 93.199 32.769 91.527 43.736zM111.445 59.291c0.067 1.53 0.117 2.458 0.109 2.274 -0.562-6.037 1.766-16.643-5.494-38.71C109.065 33.412 110.842 42.398 111.445 59.291zM130.265 63.92c0.329 2.116 0.547 3.4 0.509 3.145 -1.188-7.196-0.94-20.108-7.805-34.964 -4.252-9.161-8.862-13.611-10.668-15.707C119.052 24.654 125.487 33.128 130.265 63.92zM79.303 60.814c0.534-8.417 1.123-9.623 1.675-12.166 3.557-14.121 5.869-18.655 10.179-25.844C78.031 42.895 79.303 60.814 79.303 60.814zM37.505 63.373c-0.024 0.471-0.016 2.812-0.008 2.419C38.081 45.747 61.782 11.076 77.827 5.21 62.315 10.191 39.336 38.968 37.505 63.373zM38.188 103.349c0.687 5.613 1.616 9.97 1.536 9.472 -3.8-17.919 1.102-58.568 12.54-73.07C43.945 49.745 35.375 75.813 38.188 103.349zM34.257 158.321c-0.697 3.996-0.614 3.458-0.165 1.388 3.824-18.365 0.212-50.656-1.332-66.366C32.761 92.337 35.675 142.412 34.257 158.321zM145.164 23.022c2.272 3.198 7.384 9.497 12.905 23.33 4.216 10.549-1.739-5.479-3.84-10.089 -7.777-18.021-18.42-26.645-36.157-33.313C133.49 9.586 138.051 14.323 145.164 23.022zM160.349 100.734c-1.174 11.388 1.192-7.638 1.439-10.115 2.257-19.967-1.41-33.458-8.753-46.237C159.271 56.404 163.33 68.177 160.349 100.734zM166.605 172.471c0.702 3.44 1.178 5.512 1.091 5.1 -4.749-24.438-0.502-87.206-0.472-89.487C166.943 94.275 160.133 142.839 166.605 172.471z" fill="#453734" stroke-width="none" opacity="1"></path><path id="SvgjsPath5647" d="M177.489 209.517c-15.15-60.52 3.6-107.91-9.18-151.03 -7.061-23.79-20.16-47.76-42.78-57.45 -6.84-2.94-13.17-3.16-19.47-2.26 -7.271-2.21-16.46-2.55-25.811 0.07 -24.32 6.79-38.6 30.39-46.02 53.01 -5.61 17.12-7.43 32.3-5.76 64.92 3.57 69.692-2.795 87.556-14.32 117.17 17.259 0 36.599 4.694 63.66 4.779 22.157 0.084 104.198 0.003 109.72-0.75C181.142 223.517 180.077 219.868 177.489 209.517zM127.009 236.896c-28.229-0.85-46.33 0.71-64.63-0.079 -0.101-0.005-0.202-0.013-0.303-0.017 0.586-10.989 1.823-25.713 2.103-51.044 0.452-48.899-16.046-69.102-13.336-111.208 0.227-0.008 0.457-0.022 0.677-0.012 0.25 0.01 0.49 0.04 0.72 0.08 1.22 0.17 2.3 0.61 3.27 1.12 0 0.03 0 0.06-0.01 0.08 0.02-0.02 0.03-0.04 0.04-0.06 0.13 0.07 0.25 0.14 0.38 0.22 0-0.05 0.01-0.1 0.02-0.15 0.05-0.27 0.1-0.55 0.16-0.83 0-0.04 0.01-0.07 0.02-0.11 0.66-3.27 1.79-6.85 3.17-10.28 -0.54 3.17-0.78 6.05-0.84 8.6 0 0.06-0.01 0.12 0 0.18 0.24-0.07 0.48-0.13 0.72-0.16 3.13-0.44 6.75 2.02 9.58 1.98 0.67-0.05 1.31-0.28 1.95-0.51 0.16-0.07 0.31-0.12 0.47-0.18 0.31-4.51 0.82-9.25 1.05-11.59 0.53-5.39 1.31-10.91 3.57-15.8 -1.09 5.09-1.83 13.05-1.3 26.74 0 0.04 0.01 0.08 0.01 0.12 0.2-0.02 0.41-0.04 0.62-0.04 0.82-0.03 1.67 0.06 2.52 0.19 0.1 0.01 0.2 0.03 0.29 0.04 1.53 0.25 3.07 0.6 4.57 0.62 0.12 0 0.23 0 0.35-0.01 0-0.04 0-0.07 0-0.11 0.01-2.05 0.18-4.74 0.59-8.73 0.14-1.21 0.25-2.42 0.35-3.63 0.39 6.06 1.1 10.09 1.79 13.3 0 0.02 0.01 0.05 0.01 0.07 0.14-0.03 0.27-0.06 0.39-0.09 1.93-0.49 2.02-0.59 4.55-0.58 1.16 0 2.06 0.13 2.91 0.08 0.2-0.01 0.4-0.03 0.59-0.07 0-0.05-0.01-0.1-0.01-0.14 -0.17-2.02-0.24-3.89-0.18-5.14 0.14-3.1 1.56-15 3.28-24.02 -0.01 9.93 1.6 15.67 2.9 24.94 0.26 1.86 0.52 3.71 0.88 5.53 0.01 0.06 0.02 0.12 0.029 0.19 0.131-0.02 0.271-0.03 0.41-0.03 1.84-0.03 4 0.75 6.11 1.06 0.13 0.02 0.26 0.04 0.38 0.05 0-0.15 0-0.29 0-0.43 0-1.05 0-1.88 0-2.24 -0.01-1.27 0-2.36 0.01-3.29 0.04 2.49 0.19 3.89 0.63 5.58 0.04 0.14 0.08 0.29 0.131 0.45 0.159 0 0.319 0.01 0.47 0.01 0.149-0.01 0.29-0.01 0.43-0.02 1.79-0.11 3.5-0.72 5.26-1.02 0.62-0.11 1.2-0.15 1.75-0.12 0.2 0 0.4 0.02 0.601 0.04 0.01-0.08 0.01-0.17 0-0.25 0.029-1.56 0.029-3.4 0.01-5.6 -0.13-14.33-0.6-15.11-1.9-27.1 4.295 16.023 5.57 33.176 5.57 33.176s1.846-0.128 2.642-0.266c0.438-3.102 2.152-21.467 1.318-26.35 2.63 8.55 2.33 15.2 2.521 25.58 0.01 0.03 0.01 0.06 0.01 0.09 0.18-0.06 0.359-0.11 0.54-0.14 2.67-0.55 5.96 0.38 9 0.14 0.09-0.01 0.18-0.02 0.27-0.03 0-0.03-0.01-0.06-0.01-0.1 -0.4-8.32-0.64-14.98-2.45-21.26 2.181 5.68 4.08 13 4.95 20.66 0 0.02 0.01 0.04 0.01 0.07 0 0.05 0.011 0.1 0.011 0.15 0.01 0.03 0.01 0.06 0.02 0.1 0.08 0.01 0.16 0.01 0.25 0.02 1.23 0.11 2.47 0.19 3.65 0.05 1.994-0.247 3.513-1.582 5.379-2.165 0.667 15.533-3.643 42.797-5.319 54.003 -0.839 5.757-1.671 11.249-2.304 16.2 -4.776 36.774-4.247 71.054-2.08 93.846C135.446 237.146 131.398 237.029 127.009 236.896zM161.339 237.787c-1.8-7.09-3.66-14.75-4.26-17.54 -4.78-22.08-6.68-57.7-2.35-79.69 -4.511 19.601-5.551 53.73 1.359 80.94 0.95 3.74 2.66 9.79 4.641 16.28 -5.631-0.109-12.501-0.275-20.942-0.51 -0.994-13.384-1.845-33.824-0.302-56.421 2.255-36.467 10.913-86.177 9.76-107.737 0.274-0.075 0.549-0.15 0.834-0.203 0.24-0.05 0.48-0.09 0.72-0.13 0.96-0.15 1.94-0.25 2.9-0.38 0.12-0.02 0.25-0.04 0.37-0.06 -0.021-0.09-0.03-0.18-0.03-0.28 -0.74-6.93-2.86-22.16-9.47-35.44 -1.13-2.28-2.32-4.61-3.88-6.63 -3.04-3.91-13.34-16.09-17.87-17.71 5.41 2.95 13.46 13.25 17.09 18.32 3.9 5.53 11.52 24.85 13.56 40.08 0.061 0.47 0.131 0.95 0.19 1.42 -0.97 0.08-1.96 0.1-2.93 0.23 -0.24 0.03-0.471 0.06-0.7 0.11 -0.42 0.08-0.83 0.18-1.23 0.32 -1.93 0.68-3.449 2.17-5.54 2.4 -1.109 0.13-2.26 0.1-3.399 0.05 0-0.09-0.01-0.18-0.021-0.27 0.011-0.01 0.03-0.01 0.04-0.02 -0.01 0-0.029 0-0.04 0.01 -0.279-4.54-0.79-8.8-1.95-13.38 -0.579-2.27-2.67-7.84-5.1-12.25 -0.4-0.72-0.8-1.4-1.21-2.04 0.3 0.67 0.59 1.35 0.85 2.05 2.421 6.29 3.271 14.06 4.381 26.28 -2.79 0.02-6.21-0.83-8.98-0.13 0.23-8.92 0.4-16.72-3.11-26.27 -0.09-0.27-0.189-0.53-0.29-0.8 0 0.22 0 0.43 0 0.65 0.018 10.723-0.445 18.599-1.341 27.3 -0.002 0-1.868 0.208-1.868 0.208 -0.281-6.221-0.846-14.428-1.7-19.028 -1.32-7.09-2.931-12.55-4.62-17.04 -0.29-0.8-0.58-1.55-0.88-2.28 0.02 0.47 0.05 0.94 0.08 1.41 0.02 0.3 0.039 0.59 0.06 0.89 1.37 19.23 2.05 29.71 2.33 35.64 -0.43-0.02-0.91-0.01-1.45 0.05 -1.93 0.2-3.81 0.71-5.75 0.89 -0.1 0.01-0.2 0.02-0.31 0.01 -0.641-3.39-0.811-6.35-0.92-9.67 -0.011-0.01-0.011-0.03 0-0.04 -0.011-0.19-0.021-0.37-0.021-0.56 -0.08 0.39-0.15 0.79-0.21 1.18 -0.36 2.21-0.51 4.46-0.47 6.73 0.01 0.39 0.04 1.22 0.08 2.26 -1.971-0.27-4.221-1-6.13-0.84 -0.41-2.81-0.541-5.15-0.601-5.79 -0.5-5.21-2.49-17.76-2.67-28.99 -0.01-0.83-0.01-1.65 0-2.46 -0.03 0.08-0.06 0.17-0.09 0.26 -0.24 0.73-0.49 1.52-0.73 2.38 -2.43 8.47-4.82 22.83-3.8 33.37 -1.58 0.02-2.19-0.74-7.46 0.6 -0.66-4.44-1.37-9.72-1.83-16.91 -0.05-0.68-0.09-1.39-0.12-2.11 -0.13 0.69-0.27 1.39-0.4 2.12 -0.85 4.72-1.57 10.17-1.12 16.04 -1.97-0.09-3.37-0.38-4.54-0.6 -0.09-0.02-0.19-0.04-0.28-0.06 -0.91-0.17-1.7-0.29-2.55-0.22 0.04-9.19 0.5-23.44 1.29-27.48 0.05-0.24 0.1-0.48 0.15-0.72 0.04-0.19 0.08-0.38 0.13-0.57 -0.24 0.37-0.46 0.73-0.67 1.11 0 0 0 0 0 0.01 -2.87 5.07-4 11.09-4.68 16.86 -0.26 2.15-0.57 6.99-0.64 11.66 -0.66 0.18-1.32 0.34-1.98 0.36 -2.37 0.18-5.19-2.63-9.53-1.96 0.26-2.61 0.69-5.89 1.39-10.11 0.13-0.77 0.27-1.54 0.43-2.3 0.12-0.56 0.24-1.12 0.37-1.68 1.53-6.51 4.05-12.69 7.29-18.56 -4.84 7.94-7.48 15.26-8.86 21.6 -2.1 4.37-3.69 9.15-4.28 13.58 -0.96-0.58-2.05-1.07-3.28-1.24 -0.23-0.05-0.46-0.07-0.7-0.07 -0.67-0.05-1.38 0.01-2.14 0.2 1.06-5.01 2.81-10.72 4.72-16.16 0.05-0.14 0.1-0.27 0.14-0.41 2.31-6.51 4.81-12.58 6.62-16.49 4.05-8.76 9.38-13.92 17.64-22.9 -7.84 7.83-14.29 13.62-18.31 21.5 -2.34 4.59-4.76 9.25-6.34 14.17 -1.32 4.14-3.99 12.8-5.18 20.49 -0.02 0.08-0.03 0.16-0.04 0.23 0.24-0.08 0.47-0.13 0.7-0.18 0.484-0.101 0.939-0.145 1.384-0.166 -1.706 21.073 1.026 39.395 7.971 68.821 0 0 1.324 6.811 2.002 12.007 2.208 19.151 1.688 29.073 1.495 63.551 0.009 5.47-0.461 11.988-0.714 17.839 -5.923-0.293-11.821-0.83-17.718-1.401 0.91-2.79 1.93-5.59 2.73-8.08 4.77-14.79 7.95-48.95 1.23-86.431 4.23 28.811 3.22 58.641-0.75 81.271 -0.67 3.82-2.34 8.6-3.64 13.2 -6.5-0.63-12.99-1.271-19.51-1.61 -3.19-0.17-6.16-0.24-9.08-0.29 16.37-39.41 18.46-57.8 16.27-124.56 -0.68-20.86-1.4-40.54 8.37-65.61 16.17-41.49 46.03-49.89 65.84-44.35 0.189 0.04 0.38 0.1 0.57 0.15 0.27-0.03 0.54-0.07 0.81-0.1 9.23-1.1 16.92 0.36 26.6 7.13 23.62 16.52 35.21 48.19 36.87 76.97 1.65 28.58-4.13 64.52 0.98 100.85 1.78 12.64 5.04 24.949 8.85 37.12 0.44 1.51 3.83 9.34 6.96 16.529C183.339 237.917 177.659 238.097 161.339 237.787z" fill="#080403" stroke-width="none" opacity="1"></path></g><g id="svga-group-glasses-single" ><path id="SvgjsPath5648" d="M100,18.13L100,18.13L100,18.13L100,18.13z" fill="#26120b" stroke-width="none" opacity="1"></path></g></g></g><rect id="SvgjsRect1033" width="200" height="15" x="0" y="185" fill="#ecf0f1" opacity="0.5" style="display:none;"></rect><text id="SvgjsText1034" font-family="&quot;Roboto&quot;, &quot;Helvetica Neue&quot;, Helvetica, Arial, sans-serif" style="font-size:0.84em;font-family:&quot;Roboto&quot;, &quot;Helvetica Neue&quot;, Helvetica, Arial, sans-serif;text-anchor:middle;font-weight:400;display:none;" font-size="0.84em" text-anchor="middle" font-weight="400" fill="#000000" x="100" y="185"><tspan id="SvgjsTspan1035" dy="1.2em" x="100" style="font-size:0.84em;font-family:&quot;Roboto&quot;, &quot;Helvetica Neue&quot;, Helvetica, Arial, sans-serif;text-anchor:middle;font-weight:400;">Created on AvatarMaker.com</tspan></text></g><defs id="SvgjsDefs1001"><radialGradient id="SvgjsRadialGradient2754" cx="100" cy="113" r="40" gradientUnits="userSpaceOnUse" class="svga-on-canvas-facehighlight-gradient-single-0"><stop id="SvgjsStop2755" stop-opacity="0.5" stop-color="#fff4f3" offset="0" ></stop><stop id="SvgjsStop2756" stop-opacity="0" stop-color="#f3d4cf" offset="0.9" ></stop></radialGradient><radialGradient id="SvgjsRadialGradient2758" cx="100" cy="57" r="36" gradientUnits="userSpaceOnUse" class="svga-on-canvas-facehighlight-gradient-single-1"><stop id="SvgjsStop2759" stop-opacity="0.5" stop-color="#fff4f3" offset="0" ></stop><stop id="SvgjsStop2760" stop-opacity="0" stop-color="#f3d4cf" offset="0.9" ></stop></radialGradient><radialGradient id="SvgjsRadialGradient3287" cx="-558.588" cy="-490.918" r="84.646" gradientTransform="matrix(0.096 -0.0248 0.0245 0.0961 140.5478 120.3577)" gradientUnits="userSpaceOnUse" class="svga-on-canvas-eyesiris-gradient-left-1"><stop id="SvgjsStop3288" stop-opacity="0.8" stop-color="#ffffff" offset="0" ></stop><stop id="SvgjsStop3289" stop-opacity="0" stop-color="#ffffff" offset="1" ></stop></radialGradient><radialGradient id="SvgjsRadialGradient3291" cx="-565.337" cy="-492.691" r="84.644" gradientTransform="matrix(0.0991 8.856325e-004 -0.0011 0.0991 130.3774 136.3533)" gradientUnits="userSpaceOnUse" class="svga-on-canvas-eyesiris-gradient-left-2"><stop id="SvgjsStop3292" stop-opacity="0.8" stop-color="#ffffff" offset="0" ></stop><stop id="SvgjsStop3293" stop-opacity="0" stop-color="#ffffff" offset="1" ></stop></radialGradient><linearGradient id="SvgjsLinearGradient3297" x1="122.283" y1="93.047" x2="123.61" y2="91.466" gradientTransform="matrix(1 0 0 1 -52 0)" gradientUnits="userSpaceOnUse" class="svga-on-canvas-eyesiris-gradient-left-5"><stop id="SvgjsStop3298" stop-opacity="1" stop-color="#ffffff" offset="0" ></stop><stop id="SvgjsStop3299" stop-opacity="0" stop-color="#ffffff" offset="1" ></stop></linearGradient><linearGradient id="SvgjsLinearGradient3305" x1="130" y1="81" x2="126" y2="85" gradientTransform="matrix(1 0 0 1 -50 0)" gradientUnits="userSpaceOnUse" class="svga-on-canvas-eyesiris-gradient-left-7"><stop id="SvgjsStop3306" stop-opacity="1" stop-color="#ffffff" offset="0" ></stop><stop id="SvgjsStop3307" stop-opacity="0" stop-color="#ffffff" offset="1" ></stop></linearGradient><radialGradient id="SvgjsRadialGradient3310" cx="-578.76" cy="-490.73" r="84.646" gradientTransform="matrix(0.096 -0.0248 0.0245 0.0961 192.4794 119.8404)" gradientUnits="userSpaceOnUse" class="svga-on-canvas-eyesiris-gradient-right-1"><stop id="SvgjsStop3311" stop-opacity="0.8" stop-color="#ffffff" offset="0" ></stop><stop id="SvgjsStop3312" stop-opacity="0" stop-color="#ffffff" offset="1" ></stop></radialGradient><radialGradient id="SvgjsRadialGradient3314" cx="-584.778" cy="-487.329" r="84.644" gradientTransform="matrix(0.0991 8.856325e-004 -0.0011 0.0991 182.3104 135.839)" gradientUnits="userSpaceOnUse" class="svga-on-canvas-eyesiris-gradient-right-2"><stop id="SvgjsStop3315" stop-opacity="0.8" stop-color="#ffffff" offset="0" ></stop><stop id="SvgjsStop3316" stop-opacity="0" stop-color="#ffffff" offset="1" ></stop></radialGradient><linearGradient id="SvgjsLinearGradient3320" x1="120.284" y1="93.047" x2="121.611" y2="91.467" gradientUnits="userSpaceOnUse" class="svga-on-canvas-eyesiris-gradient-right-5"><stop id="SvgjsStop3321" stop-opacity="1" stop-color="#ffffff" offset="0" ></stop><stop id="SvgjsStop3322" stop-opacity="0" stop-color="#ffffff" offset="1" ></stop></linearGradient><linearGradient id="SvgjsLinearGradient3328" x1="130" y1="81" x2="126" y2="85" gradientUnits="userSpaceOnUse" class="svga-on-canvas-eyesiris-gradient-right-7"><stop id="SvgjsStop3329" stop-opacity="1" stop-color="#ffffff" offset="0" ></stop><stop id="SvgjsStop3330" stop-opacity="0" stop-color="#ffffff" offset="1" ></stop></linearGradient><linearGradient id="SvgjsLinearGradient3360" x1="130" y1="81" x2="126" y2="85" gradientTransform="matrix(1 0 0 1 -50 0)" gradientUnits="userSpaceOnUse" class="svga-on-canvas-eyesiris-gradient-left-6"><stop id="SvgjsStop3361" stop-opacity="1" stop-color="#ffffff" offset="0" ></stop><stop id="SvgjsStop3362" stop-opacity="0" stop-color="#ffffff" offset="1" ></stop></linearGradient><linearGradient id="SvgjsLinearGradient3370" x1="130" y1="81" x2="126" y2="85" gradientUnits="userSpaceOnUse" class="svga-on-canvas-eyesiris-gradient-right-6"><stop id="SvgjsStop3371" stop-opacity="1" stop-color="#ffffff" offset="0" ></stop><stop id="SvgjsStop3372" stop-opacity="0" stop-color="#ffffff" offset="1" ></stop></linearGradient><linearGradient id="SvgjsLinearGradient5095" x1="99.98" y1="171.27" x2="99.98" y2="136.351" gradientUnits="userSpaceOnUse" class="svga-on-canvas-chinshadow-gradient-single-0"><stop id="SvgjsStop5096" stop-opacity="0.8" stop-color="#e4b3ab" offset="0" ></stop><stop id="SvgjsStop5097" stop-opacity="1" stop-color="#c5796d" offset="0.7" ></stop></linearGradient><radialGradient id="SvgjsRadialGradient7453" cx="125.523" cy="88.627" r="13.218" gradientTransform="matrix(-1.0975 0.096 0.0956 1.0928 203.2283 -20.8703)" gradientUnits="userSpaceOnUse" class="svga-on-canvas-eyesback-gradient-left-0"><stop id="SvgjsStop7454" stop-opacity="1" stop-color="#ffffff" offset="0" ></stop><stop id="SvgjsStop7455" stop-opacity="1" stop-color="#fdfefe" offset="0.544" ></stop><stop id="SvgjsStop7456" stop-opacity="1" stop-color="#f6f8f9" offset="0.74" ></stop><stop id="SvgjsStop7457" stop-opacity="1" stop-color="#eaeff2" offset="0.879" ></stop><stop id="SvgjsStop7458" stop-opacity="1" stop-color="#d9e3e8" offset="0.992" ></stop><stop id="SvgjsStop7459" stop-opacity="1" stop-color="#d8e2e7" offset="1" ></stop></radialGradient><radialGradient id="SvgjsRadialGradient7461" cx="125.523" cy="88.627" r="13.218" gradientTransform="matrix(1.0975 0.096 -0.0956 1.0928 -3.2288 -20.8703)" gradientUnits="userSpaceOnUse" class="svga-on-canvas-eyesback-gradient-right-0"><stop id="SvgjsStop7462" stop-opacity="1" stop-color="#ffffff" offset="0" ></stop><stop id="SvgjsStop7463" stop-opacity="1" stop-color="#fdfefe" offset="0.544" ></stop><stop id="SvgjsStop7464" stop-opacity="1" stop-color="#f6f8f9" offset="0.74" ></stop><stop id="SvgjsStop7465" stop-opacity="1" stop-color="#eaeff2" offset="0.879" ></stop><stop id="SvgjsStop7466" stop-opacity="1" stop-color="#d9e3e8" offset="0.992" ></stop><stop id="SvgjsStop7467" stop-opacity="1" stop-color="#d8e2e7" offset="1" ></stop></radialGradient><radialGradient id="SvgjsRadialGradient7469" cx="125.523" cy="88.627" r="13.218" gradientTransform="matrix(-1.0975 0.096 0.0956 1.0928 203.2283 -20.8703)" gradientUnits="userSpaceOnUse" class="svga-on-canvas-eyesfront-gradient-left-0"><stop id="SvgjsStop7470" stop-opacity="1" stop-color="#ffffff" offset="0" ></stop><stop id="SvgjsStop7471" stop-opacity="1" stop-color="#fdfefe" offset="0.544" ></stop><stop id="SvgjsStop7472" stop-opacity="1" stop-color="#f6f8f9" offset="0.74" ></stop><stop id="SvgjsStop7473" stop-opacity="1" stop-color="#eaeff2" offset="0.879" ></stop><stop id="SvgjsStop7474" stop-opacity="1" stop-color="#d9e3e8" offset="0.992" ></stop><stop id="SvgjsStop7475" stop-opacity="1" stop-color="#d8e2e7" offset="1" ></stop></radialGradient><radialGradient id="SvgjsRadialGradient7479" cx="122.915" cy="85.507" fx="136.35" fy="84.425" r="17.038" gradientTransform="matrix(0.9926 0.1216 0.1079 -0.8805 -54.1424 145.8439)" gradientUnits="userSpaceOnUse" class="svga-on-canvas-eyesfront-gradient-left-3"><stop id="SvgjsStop7480" stop-opacity="1" stop-color="#e4b3ab" offset="0" ></stop><stop id="SvgjsStop7481" stop-opacity="0.3" stop-color="#e4b3ab" offset="0.7" ></stop><stop id="SvgjsStop7482" stop-opacity="0" stop-color="#f3d4cf" offset="1" ></stop></radialGradient><radialGradient id="SvgjsRadialGradient7484" cx="78.447" cy="85.328" r="26.192" gradientTransform="matrix(0.7158 -0.1012 0.1016 0.7275 7.9808 45.9445)" gradientUnits="userSpaceOnUse" class="svga-on-canvas-eyesfront-gradient-left-4"><stop id="SvgjsStop7485" stop-opacity="0" stop-color="#000000" offset="0.9" ></stop><stop id="SvgjsStop7486" stop-opacity="0.3" stop-color="#000000" offset="1" ></stop></radialGradient><radialGradient id="SvgjsRadialGradient7490" cx="125.523" cy="88.627" r="13.218" gradientTransform="matrix(1.0975 0.096 -0.0956 1.0928 -3.2288 -20.8703)" gradientUnits="userSpaceOnUse" class="svga-on-canvas-eyesfront-gradient-right-0"><stop id="SvgjsStop7491" stop-opacity="1" stop-color="#ffffff" offset="0" ></stop><stop id="SvgjsStop7492" stop-opacity="1" stop-color="#fdfefe" offset="0.544" ></stop><stop id="SvgjsStop7493" stop-opacity="1" stop-color="#f6f8f9" offset="0.74" ></stop><stop id="SvgjsStop7494" stop-opacity="1" stop-color="#eaeff2" offset="0.879" ></stop><stop id="SvgjsStop7495" stop-opacity="1" stop-color="#d9e3e8" offset="0.992" ></stop><stop id="SvgjsStop7496" stop-opacity="1" stop-color="#d8e2e7" offset="1" ></stop></radialGradient><radialGradient id="SvgjsRadialGradient7500" cx="122.915" cy="85.507" fx="136.35" fy="84.425" r="17.038" gradientTransform="matrix(-0.9926 0.1216 -0.1079 -0.8805 254.1424 145.8439)" gradientUnits="userSpaceOnUse" class="svga-on-canvas-eyesfront-gradient-right-3"><stop id="SvgjsStop7501" stop-opacity="1" stop-color="#e4b3ab" offset="0" ></stop><stop id="SvgjsStop7502" stop-opacity="0.3" stop-color="#e4b3ab" offset="0.7" ></stop><stop id="SvgjsStop7503" stop-opacity="0" stop-color="#f3d4cf" offset="1" ></stop></radialGradient><radialGradient id="SvgjsRadialGradient7505" cx="78.447" cy="85.328" r="26.192" gradientTransform="matrix(-0.7158 -0.1012 -0.1016 0.7275 192.0192 45.9445)" gradientUnits="userSpaceOnUse" class="svga-on-canvas-eyesfront-gradient-right-4"><stop id="SvgjsStop7506" stop-opacity="0" stop-color="#000000" offset="0.9" ></stop><stop id="SvgjsStop7507" stop-opacity="0.3" stop-color="#000000" offset="1" ></stop></radialGradient><linearGradient id="SvgjsLinearGradient7656" x1="100" y1="141" x2="100" y2="138" gradientUnits="userSpaceOnUse" class="svga-on-canvas-mouth-gradient-single-0"><stop id="SvgjsStop7657" stop-opacity="1" stop-color="#ebc3bd" offset="0.1" ></stop><stop id="SvgjsStop7658" stop-opacity="1" stop-color="#e4b3ab" offset="1" ></stop></linearGradient></defs></svg>